<svg width="800" height="800" viewBox="0 0 800 800" fill="none" xmlns="http://www.w3.org/2000/svg">
  <rect width="800" height="800" fill="#f5f5f5"/>
  <!-- Tennis court background -->
  <rect x="100" y="200" width="600" height="400" fill="#2D5A27"/>
  <!-- Court lines -->
  <rect x="100" y="200" width="600" height="400" fill="none" stroke="white" stroke-width="4"/>
  <line x1="400" y1="200" x2="400" y2="600" stroke="white" stroke-width="3"/>
  <rect x="200" y="200" width="400" height="400" fill="none" stroke="white" stroke-width="2"/>
  <!-- Net fence pattern -->
  <rect x="120" y="250" width="560" height="300" fill="#1C2840" fill-opacity="0.3"/>
  <g stroke="#1C2840" stroke-width="1">
    <line x1="120" y1="280" x2="680" y2="280"/>
    <line x1="120" y1="310" x2="680" y2="310"/>
    <line x1="120" y1="340" x2="680" y2="340"/>
    <line x1="120" y1="370" x2="680" y2="370"/>
    <line x1="120" y1="400" x2="680" y2="400"/>
    <line x1="120" y1="430" x2="680" y2="430"/>
    <line x1="120" y1="460" x2="680" y2="460"/>
    <line x1="120" y1="490" x2="680" y2="490"/>
    <line x1="120" y1="520" x2="680" y2="520"/>
    <line x1="160" y1="250" x2="160" y2="550"/>
    <line x1="200" y1="250" x2="200" y2="550"/>
    <line x1="240" y1="250" x2="240" y2="550"/>
    <line x1="280" y1="250" x2="280" y2="550"/>
    <line x1="320" y1="250" x2="320" y2="550"/>
    <line x1="360" y1="250" x2="360" y2="550"/>
    <line x1="400" y1="250" x2="400" y2="550"/>
    <line x1="440" y1="250" x2="440" y2="550"/>
    <line x1="480" y1="250" x2="480" y2="550"/>
    <line x1="520" y1="250" x2="520" y2="550"/>
    <line x1="560" y1="250" x2="560" y2="550"/>
    <line x1="600" y1="250" x2="600" y2="550"/>
    <line x1="640" y1="250" x2="640" y2="550"/>
  </g>
  <!-- Poles -->
  <rect x="110" y="220" width="15" height="360" fill="#666"/>
  <rect x="675" y="220" width="15" height="360" fill="#666"/>
  <!-- Tennis ball -->
  <circle cx="400" cy="680" r="35" fill="#CCFF00" stroke="#666" stroke-width="2"/>
  <path d="M375 650 Q400 680 375 710" stroke="white" stroke-width="3" fill="none"/>
  <path d="M425 650 Q400 680 425 710" stroke="white" stroke-width="3" fill="none"/>
  <text x="400" y="760" text-anchor="middle" font-family="Arial" font-size="28" font-weight="bold" fill="#1C2840">Tenis Kortu Çevre Filesi</text>
</svg>
