<?xml version="1.0" encoding="UTF-8"?>
<!DOCTYPE svg PUBLIC "-//W3C//DTD SVG 1.1//EN" "http://www.w3.org/Graphics/SVG/1.1/DTD/svg11.dtd">
<!-- Creator: CorelDRAW 2018 (64-Bit) -->
<svg xmlns="http://www.w3.org/2000/svg" xml:space="preserve" width="21.1666mm" height="12.6998mm" version="1.1" style="shape-rendering:geometricPrecision; text-rendering:geometricPrecision; image-rendering:optimizeQuality; fill-rule:evenodd; clip-rule:evenodd"
viewBox="0 0 2116.66 1269.98"
 xmlns:xlink="http://www.w3.org/1999/xlink">
 <defs>
  <style type="text/css">
   <![CDATA[
    .fil1 {fill:#1C2840}
    .fil2 {fill:#1C2941}
    .fil3 {fill:#1E2942}
    .fil5 {fill:#1E2A42}
    .fil6 {fill:#1F2A42}
    .fil4 {fill:#BA1324}
    .fil0 {fill:#BB1624}
   ]]>
  </style>
 </defs>
 <g id="Katman_x0020_1">
  <metadata id="CorelCorpID_0Corel-Layer"/>
  <g id="_2378686071936">
   <path class="fil0" d="M971.56 656.13c27.54,-4.63 45.4,8.26 43.24,36.14 -4.74,61.16 -84.94,66.28 -81.36,11.07 1.59,-24.59 16.34,-43.55 38.12,-47.21zm-12.08 -28.41c-39.6,9.16 -68.76,36.92 -67.17,84.21 2.93,87.65 165.7,78.85 162.47,-27.73 -1.71,-56.17 -59.21,-64.84 -95.3,-56.48z"/>
   <path class="fil0" d="M1170.19 656.06c18.4,-0.05 39.22,-2.76 48.62,7.45 7.3,31.03 -31.83,27.7 -54.41,27.95l5.79 -35.4zm-58.32 112.43l38.67 0.24 8.92 -48.18c6.19,-2.51 16.36,-2.09 23.09,-1.27l25.13 49.14 40.58 0.23c-7.3,-18.45 -19.6,-37.29 -26.48,-54.61 15.28,-10.43 23.61,-7.76 32.71,-26.94 7.85,-16.54 5.02,-37.76 -7.04,-47.66 -20.09,-16.48 -82.92,-12.21 -112.97,-10.55l-22.61 139.6z"/>
   <path class="fil0" d="M753.27 656.09c19.11,-0.37 36.96,-2.96 46.78,9 5.44,30.45 -27.17,28.48 -52.38,28.32l5.6 -37.32zm-58.1 111.72l38.09 0.86c11.51,-24.87 -0.37,-45.47 16.13,-47.84 16.15,-2.32 94.25,10.1 91.29,-55.58 -1.13,-25.07 -19.23,-32.98 -42.6,-36.39 -12.83,-1.87 -65.8,-1.69 -78.56,0.18l-24.35 138.77z"/>
   <path class="fil0" d="M1502.74 732.42l-11.29 28.1c123.73,39.23 157.56,-44.37 113.4,-67.72 -17.06,-9.02 -41.65,-8.32 -57.22,-20.7 0.51,-30.18 52.41,-13.03 72.97,-10.65l7.3 -28.15c-31.46,-8.77 -99.57,-16.14 -117.19,20.66 -6.35,13.24 -6.21,30.99 2.49,41.12 15.29,17.81 66.58,16.19 67.91,31.93 1.11,13.15 -24.29,16.56 -35.87,15.66 -16.58,-1.3 -28.09,-6.92 -42.5,-10.25z"/>
   <path class="fil0" d="M512.51 732.3l-9.2 29.35c44.27,10.01 99.95,18.88 124.14,-18.38 13.62,-20.99 4.61,-42.55 -13.28,-51.57 -16.44,-8.29 -50.44,-7.31 -55.78,-24.48 10.49,-21.01 49.58,-10.46 72.57,-5.62l8.17 -27.64c-30.14,-9.02 -59.49,-11.92 -88.95,-2 -13.97,4.7 -21.69,10.86 -26.98,21.94 -30.3,63.4 69.98,52.26 68.42,74.79 -0.83,11.86 -23.12,15.06 -36.06,13.84 -16.52,-1.55 -28.45,-7.84 -43.05,-10.23z"/>
   <path class="fil0" d="M1316.16 656.78l47.86 0.55c3.38,25.61 -17.64,84.35 -15.91,111.22 6.77,0.23 32.33,2.56 37.02,-2.02 5.41,-7.08 16.87,-91.85 20.57,-109.04l47.48 -0.56 4.17 -29.07 -135.43 0.26 -5.76 28.66z"/>
  </g>
  <g id="_2378686070944">
   <path class="fil1" d="M117 537.21l78.9 0.58c3.07,-23.89 11.08,-94.85 18.18,-112.05l130.86 -0.36c5.9,-11.88 7.86,-42.32 9.3,-56.98l-131.93 0.01c-2.25,-10.67 7.62,-60.26 9.69,-74.19l132.2 -0.21c2.11,0.01 6.59,0.12 8.48,-0.06 8.46,-0.8 3.73,0.79 7.72,-2.19 6.7,-8.32 9.42,-44.69 10.74,-58.05l-224.98 0.58c-4.46,2.61 -2.94,1 -4.9,6.55l-21.3 142.51c-6.37,49.18 -19.63,106.21 -22.96,153.86z"/>
   <path class="fil1" d="M403.46 537.1l77.69 0.66c3.76,-7.13 44.47,-275.9 46.64,-303.39l-79.09 -0.14 -45.24 302.87z"/>
  </g>
  <g id="_2378686070368">
   <path class="fil2" d="M820.6 537.28l237.14 0.22 9.4 -56.39 -157.81 0.45c-1.7,-12.81 6.21,-52.35 8.87,-67.01l135.17 -0.38 9.77 -57.32 -136.46 -0.02 9.81 -64.59 134.26 -0.09c25.94,0.15 19.69,3.96 28.83,-58.15l-233.61 0.33 -45.37 302.95z"/>
   <path class="fil2" d="M1467.09 536.84l235.37 0.63 9.92 -56.4 -157.25 0.29c-0.99,-12.37 6.63,-55.11 9.36,-67.4 25.11,-0.29 119.26,4.15 134.69,-1.59l10.02 -55.39 -136.06 -0.17 9.32 -63.3c26.12,-7.34 117.57,1.82 153.43,-1.96l9.73 -57.22 -230.11 0.13c-4.75,2.44 -3.01,0.73 -5.09,6.46 -0.42,1.16 -1.3,8 -1.45,9.24 -7.85,66.37 -39.95,247.13 -41.88,286.68z"/>
   <polygon class="fil2" points="554.72,537.29 775.04,537.59 783.88,480.73 642.89,480.85 679.8,234.16 599.87,234.1 "/>
  </g>
  <path class="fil3" d="M273.09 929.41c25.58,10.13 93.63,19.73 126.07,26.2 128.92,25.74 263.82,43.38 394.85,58.44 180.99,20.79 396.3,26.62 577.8,5.69 174.18,-20.09 340.04,-59.29 469.17,-137.71 52.85,-32.09 127.18,-88.31 164.82,-137.4 22.68,-29.57 41.55,-52.75 61.97,-89.18 10.71,-19.12 43.3,-82.66 45.09,-104.71 -12.13,19.81 -47.15,61.93 -63.27,80.18 -21.69,24.57 -47.68,46.11 -75.47,69.23 -101.17,84.16 -262.9,152.26 -390.41,186.4 -251.63,67.38 -516.11,85.65 -776.93,83.21 -89.81,-0.85 -185.39,-4.98 -274.43,-13.33l-197.53 -19.5c-19.13,-2.31 -43.92,-7.48 -61.73,-7.52z"/>
  <path class="fil4" d="M13.81 924.76c4.46,2.3 63.6,-10.05 76.53,-11.43 29.34,-3.15 59.12,-5.77 88.64,-7.23 123.27,-6.07 241.91,6.24 363.5,19.26 58.06,6.22 116.98,10.39 175.88,15.87 180.96,16.81 366.18,3.47 544.52,-19.92 56.13,-7.36 110.58,-20.82 163.51,-28.92 -4.26,-1.44 -155.87,7.23 -177.25,8.05 -59.93,2.29 -127.31,-0.86 -186.97,-3.93 -120.16,-6.18 -238.23,-17.77 -357.59,-25.41 -124.46,-7.96 -242.44,-15.2 -368.2,-6.72 -56.97,3.83 -116.55,10.46 -171.74,20.36 -32.85,5.88 -128.86,25.74 -150.83,40.02z"/>
  <path class="fil5" d="M1110.85 537.45l72.42 -0.21c9.67,-39.77 18.08,-121.28 26.82,-171.13l3.61 -20c0.19,-0.58 0.47,-1.19 0.67,-1.7l1.65 -3.32c6.44,17.33 16.8,33.22 25.29,49.06 9.43,17.59 17.94,33.66 27.01,49.61 5.55,9.77 52.46,96.09 55.64,97.43l73.41 -0.03c6.03,-50.42 16.4,-101.32 23.3,-151.87 3.4,-24.86 23.72,-136.47 21.46,-151.12l-68.38 -0.07c-5.21,10.6 -14.35,78.97 -16.53,95.73 -2.21,16.96 -11.12,89.35 -15.67,98.8l-108.05 -194.41 -60.81 -0.3c-10.39,-0.1 -13.66,-2.22 -16.1,5.86l-19.58 127.56c-9.18,53.25 -20.97,116.85 -26.16,170.11z"/>
  <path class="fil6" d="M1770.91 467.41l-17.25 57.1c15.05,10.43 66.39,17.33 87.56,18.94 44.77,3.39 98.32,-1.37 136.46,-24.87 38.13,-23.5 54.42,-72.56 36.17,-111.36 -23.42,-49.82 -120.39,-46.46 -142.66,-72.3 -11.06,-12.83 -1.77,-28.52 8.66,-35.53 10.36,-6.96 29.53,-10.23 44.22,-10.8 38.86,-1.5 60.81,6.39 94.45,15.4l16.63 -58.42c-69.5,-22.99 -208.12,-31.01 -244.62,47.51 -13.55,29.15 -10.91,61.67 6.3,84.27 13.59,17.85 42.88,28.65 71.65,36.88 22.96,6.57 70.81,12.19 68.94,40.03 -1.91,28.29 -48.91,34.15 -77.13,32.92 -35.99,-1.57 -59.22,-10.55 -89.38,-19.77z"/>
 </g>
</svg>
