<svg xmlns="http://www.w3.org/2000/svg" viewBox="0 0 48 32" fill="none">
  <rect width="48" height="32" rx="4" fill="#00A651"/>
  <path d="M10 12H14V14H13V20H11V14H10V12Z" fill="white"/>
  <path d="M15 12H19C20.1 12 21 12.9 21 14V15C21 16 20.5 16.5 20 16.7L21 20H19L18 17H17V20H15V12ZM17 15H18.5C18.8 15 19 14.8 19 14.5C19 14.2 18.8 14 18.5 14H17V15Z" fill="white"/>
  <path d="M22 16C22 13.8 23.8 12 26 12C28.2 12 30 13.8 30 16C30 18.2 28.2 20 26 20C23.8 20 22 18.2 22 16ZM24 16C24 17.1 24.9 18 26 18C27.1 18 28 17.1 28 16C28 14.9 27.1 14 26 14C24.9 14 24 14.9 24 16Z" fill="white"/>
  <path d="M31 12H33L34 16L35 12H37L38 16L39 12H41L38.5 20H36.5L35.5 16L34.5 20H32.5L31 12Z" fill="white"/>
</svg>
