<svg xmlns="http://www.w3.org/2000/svg" viewBox="0 0 48 32" fill="none">
  <rect width="48" height="32" rx="4" fill="#1A1F71"/>
  <path d="M18.5 21H16L13 11H15.5L17.25 18L19 11H21.5L18.5 21Z" fill="white"/>
  <path d="M22 11H24.5V21H22V11Z" fill="white"/>
  <path d="M30.5 14C29.5 14 29 14.5 29 15C29 16 32 16 32 18.5C32 20 31 21 29 21C28 21 27 20.5 26.5 20L27.5 18.5C28 19 28.5 19.5 29 19.5C30 19.5 30.5 19 30.5 18.5C30.5 17.5 27.5 17.5 27.5 15C27.5 13.5 28.5 12.5 30 12.5C31 12.5 32 13 32.5 13.5L31.5 15C31 14.5 30.5 14 30.5 14Z" fill="white"/>
  <path d="M37 21H34.5L32.5 11H35L36 18L37 11H39.5L37.5 21H37Z" fill="white"/>
</svg>
