<?xml version="1.0" encoding="UTF-8"?>
<!DOCTYPE svg PUBLIC "-//W3C//DTD SVG 1.1//EN" "http://www.w3.org/Graphics/SVG/1.1/DTD/svg11.dtd">
<!-- Creator: CorelDRAW 2018 (64-Bit) -->
<svg xmlns="http://www.w3.org/2000/svg" xml:space="preserve" width="1.3546mm" height="1.3546mm" version="1.1" style="shape-rendering:geometricPrecision; text-rendering:geometricPrecision; image-rendering:optimizeQuality; fill-rule:evenodd; clip-rule:evenodd"
viewBox="0 0 135.46 135.46"
 xmlns:xlink="http://www.w3.org/1999/xlink">
 <defs>
  <style type="text/css">
   <![CDATA[
    .fil3 {fill:#FFFFFF}
    .fil4 {fill:#FFFFFF}
    .fil1 {fill:#FFFFFF}
    .fil5 {fill:#FFFFFF}
    .fil6 {fill:#FFFFFF}
    .fil2 {fill:#EF4444}
    .fil0 {fill:#EF4444}
   ]]>
  </style>
 </defs>
 <g id="Katman_x0020_1">
  <metadata id="CorelCorpID_0Corel-Layer"/>
  <g id="_2377855711104">
   <path class="fil0" d="M78.61 100.17c1.87,-1.9 3.97,-1.9 5.36,0.38 3.05,4.99 -2.86,9.87 -5.67,5.4 -1.26,-1.99 -1.18,-4.28 0.31,-5.78zm-2.53 -1.53c-2.55,2.93 -3.25,6.71 -0.49,10.28 5.13,6.61 17.23,-3.17 11.02,-11.23 -3.27,-4.25 -8.2,-1.71 -10.53,0.95z"/>
   <path class="fil0" d="M93.97 89.06c1.42,-1.04 2.88,-2.41 4.18,-2.14 2.3,1.99 -0.92,3.92 -2.65,5.2l-1.53 -3.06zm1.77 11.96l3.01 -2.15 -2 -4.22c0.33,-0.54 1.15,-1.08 1.71,-1.39l4.69 2.39 3.16 -2.25c-1.6,-1.02 -3.61,-1.79 -5.11,-2.74 0.6,-1.66 1.4,-1.92 1.03,-3.91 -0.32,-1.72 -1.72,-3.21 -3.21,-3.3 -2.48,-0.15 -7.1,3.69 -9.33,5.5l6.05 12.07z"/>
   <path class="fil0" d="M61.71 112.37c1.46,-1.1 2.7,-2.3 4.13,-1.92 2.12,2.05 -0.51,3.72 -2.47,5.12l-1.66 -3.2zm1.75 11.89l3 -2.06c-0.5,-2.57 -2.57,-3.5 -1.43,-4.61 1.12,-1.08 7.86,-4.48 3.96,-9.4 -1.49,-1.88 -3.33,-1.48 -5.33,-0.43 -1.1,0.57 -5.19,3.54 -6.07,4.4l5.87 12.1z"/>
   <path class="fil0" d="M123.97 76.37l0.7 2.81c11.76,-3.88 9.71,-12.24 4.99,-11.58 -1.83,0.25 -3.69,1.68 -5.59,1.6 -1.65,-2.37 3.33,-3.94 5.05,-4.91l-1.01 -2.58c-2.92,1.08 -8.6,4.31 -7.91,8.15 0.25,1.38 1.25,2.74 2.49,3.04 2.18,0.52 6.06,-2.47 7.04,-1.33 0.82,0.96 -0.95,2.64 -1.9,3.22 -1.35,0.83 -2.56,1.04 -3.86,1.58z"/>
   <path class="fil0" d="M47.35 131.73l0.92 2.78c3.99,-1.7 8.79,-4.13 8.58,-8.36 -0.12,-2.39 -2.02,-3.55 -3.91,-3.25 -1.73,0.28 -4.31,2.26 -5.68,1.23 -0.37,-2.22 3.25,-3.59 5.3,-4.5l-0.91 -2.59c-2.84,0.99 -5.27,2.4 -7,4.82 -0.82,1.14 -1.07,2.05 -0.86,3.2 1.2,6.6 8.34,0.13 9.47,1.96 0.6,0.97 -0.94,2.46 -2.01,3.09 -1.37,0.8 -2.64,0.98 -3.9,1.62z"/>
   <path class="fil0" d="M105.3 80.95l3.74 -2.63c1.69,1.79 3.35,7.51 4.99,9.49 0.53,-0.36 2.64,-1.61 2.75,-2.22 0.02,-0.85 -3.83,-8.05 -4.51,-9.59l3.65 -2.7 -1.31 -2.48 -10.46 7.59 1.15 2.54z"/>
  </g>
  <path class="fil1" d="M22.81 112.73c2,-0.51 6.55,-2.91 8.8,-3.94 8.96,-4.09 17.92,-8.94 26.53,-13.77 11.89,-6.67 25.22,-15.76 35.31,-24.99 9.69,-8.86 18.04,-18.51 22.44,-28.93 1.8,-4.27 3.84,-10.94 3.97,-15.57 0.08,-2.79 0.21,-5.02 -0.15,-8.13 -0.19,-1.63 -0.99,-6.91 -1.85,-8.33 0.13,1.74 -0.15,5.83 -0.33,7.64 -0.23,2.44 -0.87,4.89 -1.54,7.51 -2.45,9.55 -9.28,20.77 -15.52,28.43 -12.31,15.13 -27.56,27.84 -43.5,39.12 -5.49,3.89 -11.47,7.83 -17.24,11.23l-12.84 7.48c-1.26,0.7 -2.99,1.47 -4.08,2.25z"/>
  <path class="fil2" d="M6.87 123.82c0.38,-0.06 3.42,-3.4 4.15,-4.05 1.64,-1.48 3.33,-2.95 5.06,-4.33 7.21,-5.77 14.95,-10.23 22.9,-14.77 3.8,-2.17 7.56,-4.5 11.37,-6.75 11.72,-6.91 22.38,-15.85 32.18,-25.09 3.08,-2.91 5.79,-6.11 8.65,-8.92 -0.32,0.1 -9.14,7.27 -10.4,8.26 -3.54,2.77 -7.77,5.53 -11.52,7.96 -7.57,4.89 -15.24,9.37 -22.82,14.14 -7.9,4.97 -15.38,9.71 -22.64,15.74 -3.29,2.73 -6.61,5.74 -9.53,8.76 -1.73,1.8 -6.69,7.22 -7.4,9.05z"/>
  <g id="_2377855708928">
   <g>
    <path class="fil3" d="M12.09 103.33l4.18 -2.98c-0.75,-1.37 -3.03,-5.42 -3.31,-6.6l6.89 -5.01c-0.14,-0.85 -1.2,-2.53 -1.68,-3.36l-6.96 5.03c-0.53,-0.48 -1.9,-3.47 -2.32,-4.28l6.97 -5.06c0.11,-0.08 0.35,-0.24 0.44,-0.32 0.42,-0.37 0.23,-0.1 0.32,-0.41 0.04,-0.7 -1.2,-2.72 -1.64,-3.47l-11.85 8.6c-0.14,0.31 -0.12,0.17 -0.01,0.54l4.31 8.33c1.54,2.83 3.01,6.35 4.66,8.99z"/>
    <path class="fil3" d="M27.19 92.4l4.13 -2.92c-0.07,-0.52 -8.17,-16.26 -9.11,-17.79l-4.18 3.01 9.16 17.7z"/>
   </g>
   <g>
    <path class="fil4" d="M49.21 76.51l12.52 -9.03 -1.65 -3.33 -8.31 6.04c-0.58,-0.61 -1.67,-3 -2.09,-3.88l7.12 -5.17 -1.67 -3.4 -7.2 5.2 -1.95 -3.78 7.08 -5.12c1.38,-0.98 1.19,-0.54 -0.69,-4.17l-12.32 8.93 9.16 17.71z"/>
    <path class="fil4" d="M83.3 51.84l12.45 -8.94 -1.63 -3.35 -8.29 6.01c-0.52,-0.62 -1.75,-3.16 -2.07,-3.92 1.31,-0.97 6.45,-4.32 7.04,-5.22l-1.58 -3.3 -7.19 5.18 -1.92 -3.7c1.1,-1.38 6.28,-4.38 8.02,-5.95l-1.66 -3.39 -12.14 8.78c-0.16,0.31 -0.13,0.15 -0.02,0.53 0.02,0.08 0.23,0.48 0.27,0.55 2.12,3.8 7.32,14.56 8.72,16.72z"/>
    <polygon class="fil4" points="35.18,86.65 46.82,78.26 45.12,74.93 37.68,80.31 30.23,65.88 26.01,68.93 "/>
   </g>
   <path class="fil5" d="M64.53 65.45l3.81 -2.77c-1,-2.47 -3.67,-7.09 -5.11,-10.05l-0.57 -1.19c-0.01,-0.04 -0.02,-0.08 -0.03,-0.12l-0.04 -0.24c1,0.67 2.16,1.12 3.21,1.63 1.17,0.57 2.23,1.09 3.31,1.59 0.67,0.3 6.44,3.07 6.66,3.01l3.87 -2.8c-1.61,-2.89 -3,-5.97 -4.56,-8.9 -0.77,-1.44 -3.96,-8.1 -4.63,-8.79l-3.61 2.61c0.13,0.75 2.25,4.71 2.77,5.68 0.53,0.98 2.82,5.13 2.94,5.81l-13.11 -6.14 -3.22 2.3c-0.55,0.39 -0.8,0.4 -0.62,0.92l3.83 7.48c1.54,3.16 3.34,6.97 5.1,9.97z"/>
   <path class="fil6" d="M96.69 36.59l1.26 3.67c1.19,-0.02 4.17,-1.61 5.34,-2.34 2.5,-1.52 5.14,-3.82 6.26,-6.51 1.11,-2.69 0.1,-5.9 -2.34,-7.25 -3.14,-1.74 -8.12,2.13 -10.28,1.62 -1.08,-0.26 -1.18,-1.44 -0.9,-2.2 0.28,-0.77 1.17,-1.67 1.92,-2.26 1.99,-1.56 3.45,-1.98 5.57,-2.79l-1.35 -3.71c-4.54,1.43 -12.16,6.29 -11.09,11.83 0.39,2.05 1.77,3.67 3.54,4.2 1.4,0.43 3.35,-0.12 5.19,-0.78 1.46,-0.53 4.2,-2.06 5.16,-0.52 0.98,1.57 -1.28,3.67 -2.81,4.68 -1.96,1.29 -3.53,1.7 -5.47,2.36z"/>
  </g>
 </g>
</svg>
